<svg width="192" height="192" viewBox="0 0 192 192" fill="none" xmlns="http://www.w3.org/2000/svg">
<g clip-path="url(#clip0_3_102)">
<path d="M104.529 9.96961C108.384 10.2751 112.212 10.5805 116.067 10.9138C126.551 11.8024 136.953 13.1631 146.938 16.6066C167.296 23.6323 179.639 37.9337 184.853 58.6221C188.708 73.8955 189.152 89.4187 187.738 104.97C187.044 112.579 185.768 120.271 183.633 127.602C177.919 147.263 164.633 159.759 145.246 165.924C133.43 169.673 121.254 170.978 108.939 171.589C92.5746 172.422 76.2934 171.895 60.0954 169.201C51.5527 167.785 43.2873 165.424 35.5211 161.453C19.767 153.372 10.614 140.154 6.67546 123.298C1.71068 101.998 1.59973 80.5324 6.67546 59.2608C12.8329 33.6294 29.6133 18.7171 55.1584 13.8296C64.977 11.969 75.0453 11.4692 85.0026 10.3306C85.7515 10.2473 86.5003 10.0807 87.2215 9.94184H104.501L104.529 9.96961ZM96.5686 39.4333C87.3047 40.2386 78.651 40.6274 70.136 41.7937C56.1292 43.7653 46.477 51.3187 42.899 65.3702C38.905 80.9212 38.8218 96.6666 41.9282 112.329C45.2011 128.852 54.0212 137.321 70.5243 140.071C87.9149 142.959 105.389 142.931 122.752 139.793C137.063 137.21 146.133 128.713 149.434 114.523C153.123 98.5827 153.04 82.5596 149.267 66.6753C146.05 53.1237 137.424 44.5151 123.556 42.238C114.458 40.7384 105.195 40.2941 96.5963 39.4333" fill="white"/>
<path d="M72.0775 53.4847C62.7581 53.568 54.0489 61.7323 53.7716 71.0352C53.411 83.8648 53.3 96.7222 53.6329 109.524C53.938 120.854 62.3975 128.546 73.8526 128.713C80.8421 128.796 87.8594 128.713 94.8489 128.713V128.768C102.476 128.768 110.104 128.824 117.731 128.768C129.713 128.657 138.09 120.16 138.09 108.247C138.09 96.3334 138.09 84.4479 138.09 72.5347C138.062 62.4821 129.464 53.5403 119.479 53.457C112.295 53.4014 105.084 53.3737 97.8999 53.3737C89.3017 53.3737 80.7034 53.4014 72.1052 53.4847" fill="url(#paint0_linear_3_102)"/>
<mask id="mask0_3_102" style="mask-type:luminance" maskUnits="userSpaceOnUse" x="53" y="53" width="86" height="76">
<path d="M72.0775 53.4847C62.7581 53.568 54.0489 61.7323 53.7716 71.0352C53.411 83.8648 53.3 96.7222 53.6329 109.524C53.938 120.854 62.3975 128.546 73.8526 128.713C80.8421 128.796 87.8594 128.713 94.8489 128.713V128.768C102.476 128.768 110.104 128.824 117.731 128.768C129.713 128.657 138.09 120.16 138.09 108.247C138.09 96.3334 138.09 84.4479 138.09 72.5347C138.062 62.4821 129.464 53.5403 119.479 53.457C112.295 53.4014 105.084 53.3737 97.8999 53.3737C89.3017 53.3737 80.7034 53.4014 72.1052 53.4847" fill="white"/>
</mask>
<g mask="url(#mask0_3_102)">
<path d="M138.09 53.3737H53.2723V128.824H138.09V53.3737Z" fill="url(#paint1_linear_3_102)"/>
</g>
</g>
<defs>
<linearGradient id="paint0_linear_3_102" x1="53.8548" y1="57.4558" x2="149.496" y2="133.849" gradientUnits="userSpaceOnUse">
<stop stop-color="#F37321"/>
<stop offset="0.26" stop-color="#F27022"/>
<stop offset="0.4" stop-color="#F26827"/>
<stop offset="0.51" stop-color="#F15B2F"/>
<stop offset="0.58" stop-color="#F04E37"/>
</linearGradient>
<linearGradient id="paint1_linear_3_102" x1="53.7993" y1="57.5391" x2="149.413" y2="133.932" gradientUnits="userSpaceOnUse">
<stop stop-color="#F37321"/>
<stop offset="0.26" stop-color="#F27022"/>
<stop offset="0.4" stop-color="#F26827"/>
<stop offset="0.51" stop-color="#F15B2F"/>
<stop offset="0.58" stop-color="#F04E37"/>
</linearGradient>
<clipPath id="clip0_3_102">
<rect width="192" height="192" fill="white"/>
</clipPath>
</defs>
</svg>
