<svg width="192" height="192" viewBox="0 0 192 192" fill="none" xmlns="http://www.w3.org/2000/svg">
<path d="M187.907 113.133H7.31392V126.42H187.907V113.133Z" fill="url(#paint0_linear_3_112)"/>
<path d="M30.0172 65C31.0043 65.0783 31.9914 65.1567 32.9629 65.235C35.6422 65.47 38.3058 65.8148 40.8597 66.6922C46.0772 68.494 49.2266 72.1447 50.5584 77.425C51.5455 81.3264 51.6552 85.3061 51.2948 89.2702C51.1224 91.2131 50.7934 93.1873 50.245 95.0518C48.7879 100.081 45.3878 103.278 40.421 104.844C37.397 105.8 34.279 106.129 31.1297 106.302C26.9463 106.521 22.7785 106.38 18.6264 105.691C16.4328 105.33 14.3176 104.719 12.3434 103.716C8.31665 101.648 5.96641 98.2795 4.96364 93.9707C3.6945 88.5338 3.66317 83.0342 4.96364 77.5973C6.53047 71.048 10.8236 67.2406 17.3573 65.9871C19.8642 65.5014 22.4495 65.3917 24.9877 65.094C25.1757 65.0783 25.3638 65.0313 25.5518 65H29.9702H30.0172ZM27.9804 72.5364C25.6145 72.7401 23.3896 72.8341 21.2117 73.1475C17.6236 73.6489 15.1637 75.5761 14.2393 79.1798C13.2208 83.1596 13.2052 87.1863 13.9886 91.1817C14.819 95.4122 17.0909 97.5744 21.3057 98.2795C25.7555 99.0159 30.2209 99.0159 34.6707 98.2011C38.3371 97.543 40.656 95.3652 41.5021 91.7458C42.4422 87.672 42.4265 83.5669 41.4551 79.5088C40.6403 76.0461 38.4311 73.8526 34.8744 73.2572C32.5398 72.8812 30.1739 72.7558 27.9804 72.5364Z" fill="black"/>
<path d="M187.907 91.1347C187.813 91.9025 187.734 92.6545 187.625 93.4223C186.685 99.8933 182.893 103.763 176.641 105.346C172.254 106.458 167.789 106.584 163.308 106.239C160.581 106.035 157.902 105.534 155.348 104.531C150.554 102.635 147.827 99.0785 146.95 94.0804C146.699 92.6389 146.589 91.1504 146.589 89.6932C146.558 82.0314 146.574 74.3696 146.574 66.7235V65.9558H155.912V66.6295C155.912 74.213 155.896 81.7807 155.928 89.3642C155.928 90.5237 156.069 91.7144 156.319 92.8426C156.978 95.8352 158.999 97.5117 161.913 98.1228C165.485 98.8749 169.073 98.8905 172.646 98.1071C176.234 97.308 178.145 95.0361 178.474 91.3384C178.553 90.4296 178.6 89.5052 178.6 88.5965C178.6 81.295 178.6 73.9936 178.6 66.6922V65.9401C178.788 65.9244 178.929 65.8931 179.086 65.8931C181.859 65.8931 184.616 65.8931 187.39 65.8931C187.562 65.8931 187.75 65.9244 187.922 65.9558V91.1504L187.907 91.1347Z" fill="black"/>
<path d="M99.9136 105.565V65.8931H100.572C107.481 65.8931 114.391 65.8618 121.301 65.8931C124.544 65.9088 127.788 66.1751 130.937 67.0055C136.295 68.4157 139.758 71.8157 141.137 77.1586C142.531 82.5328 142.547 87.9854 141.325 93.4066C139.915 99.6426 135.857 103.262 129.683 104.625C126.691 105.283 123.667 105.534 120.611 105.55C113.905 105.581 107.184 105.55 100.478 105.55H99.9136V105.565ZM109.189 98.1228H109.941C113.169 98.1228 116.397 98.1698 119.609 98.1071C121.473 98.0758 123.353 97.9504 125.187 97.6841C128.79 97.167 131.188 95.1301 132.065 91.5578C133.052 87.531 133.005 83.4729 132.018 79.4618C131.25 76.3282 129.198 74.3383 125.97 73.7743C124.623 73.5392 123.244 73.4139 121.881 73.3825C117.838 73.3199 113.796 73.3199 109.753 73.3042C109.565 73.3042 109.377 73.3355 109.158 73.3512V98.1385L109.189 98.1228Z" fill="black"/>
<path d="M79.5291 85.6978C85.201 92.2942 90.8416 98.8592 96.5292 105.503C96.2942 105.534 96.1531 105.565 96.0121 105.565C92.4397 105.565 88.883 105.565 85.3107 105.581C84.8406 105.581 84.6369 105.33 84.4019 105.048C80.7669 100.442 77.1162 95.8352 73.4811 91.2444C73.3714 91.1034 73.2618 90.9624 73.0894 90.7587C72.541 91.4638 72.0083 92.1375 71.4756 92.8112C68.2636 96.9163 65.0516 101.021 61.8239 105.111C61.6516 105.33 61.3225 105.55 61.0718 105.55C57.4054 105.581 53.7391 105.565 50.0727 105.565C49.9943 105.565 49.916 105.565 49.6966 105.534C55.4469 98.8749 61.1188 92.2942 66.8378 85.6508C61.4792 79.1015 56.1363 72.5678 50.6837 65.8931H51.3732C54.8202 65.8931 58.2672 65.8931 61.7142 65.8931C62.1216 65.8931 62.3566 66.0498 62.5917 66.3631C66.023 70.9226 69.47 75.4821 72.9014 80.0416C73.0111 80.1826 73.1207 80.3079 73.2774 80.5116C73.6848 79.9789 74.0765 79.4775 74.4525 78.9761C77.6332 74.7927 80.7982 70.6093 83.9632 66.4102C84.2296 66.0654 84.4803 65.8931 84.9503 65.8931C88.2563 65.9088 91.5623 65.8931 94.8683 65.8931C95.0563 65.8931 95.2444 65.9088 95.5421 65.9244C90.1678 72.5521 84.872 79.1015 79.5291 85.6978Z" fill="black"/>
<path d="M21.713 76.1245C19.3314 76.1402 17.0909 78.224 17.0282 80.6056C16.9342 83.8803 16.9029 87.1706 16.9969 90.4453C17.0752 93.3439 19.2374 95.3025 22.1674 95.3495C23.9536 95.3652 25.7554 95.3495 27.5416 95.3495C29.5002 95.3495 31.443 95.3808 33.4016 95.3495C36.4726 95.3182 38.6035 93.1559 38.6035 90.1006C38.6035 87.061 38.6035 84.0213 38.6035 80.966C38.6035 78.3964 36.3942 76.1088 33.8403 76.0932C32.0071 76.0932 30.1582 76.0775 28.325 76.0775C26.1315 76.0775 23.9223 76.0775 21.7287 76.1088" fill="url(#paint1_linear_3_112)"/>
<mask id="mask0_3_112" style="mask-type:luminance" maskUnits="userSpaceOnUse" x="16" y="76" width="23" height="20">
<path d="M21.713 76.1245C19.3314 76.1402 17.0909 78.224 17.0282 80.6056C16.9342 83.8803 16.9029 87.1706 16.9969 90.4453C17.0752 93.3439 19.2374 95.3025 22.1674 95.3495C23.9536 95.3652 25.7554 95.3495 27.5416 95.3495C29.5002 95.3495 31.443 95.3808 33.4016 95.3495C36.4726 95.3182 38.6035 93.1559 38.6035 90.1006C38.6035 87.061 38.6035 84.0213 38.6035 80.966C38.6035 78.3964 36.3942 76.1088 33.8403 76.0932C32.0071 76.0932 30.1582 76.0775 28.325 76.0775C26.1315 76.0775 23.9223 76.0775 21.7287 76.1088" fill="white"/>
</mask>
<g mask="url(#mask0_3_112)">
<path d="M38.6035 76.0932H16.9029V95.3808H38.6035V76.0932Z" fill="url(#paint2_linear_3_112)"/>
</g>
<path d="M13.9416 115.765V123.803H12.7508V115.765H13.9416Z" fill="white"/>
<path d="M22.9822 123.819H21.7914L16.9969 117.41V123.819H15.8061V115.765H16.9969L21.7914 122.158V115.765H22.9822V123.819Z" fill="white"/>
<path d="M30.456 115.765V116.611H27.9647V123.803H26.7739V116.611H24.267V115.765H30.456Z" fill="white"/>
<path d="M32.9315 116.627V119.322H36.2689V120.184H32.9315V122.957H36.6606V123.819H31.7407V115.765H36.6606V116.627H32.9315Z" fill="white"/>
<path d="M45.2155 118.1C44.9648 117.63 44.5887 117.269 44.1187 117.003C43.633 116.737 43.0846 116.611 42.4422 116.611C41.7998 116.611 41.2357 116.737 40.7187 117.003C40.2016 117.254 39.8099 117.63 39.5122 118.116C39.2145 118.601 39.0735 119.15 39.0735 119.776C39.0735 120.403 39.2145 120.967 39.5122 121.437C39.8099 121.907 40.2016 122.283 40.7187 122.534C41.2357 122.785 41.7998 122.926 42.4422 122.926C43.3353 122.926 44.0717 122.691 44.6514 122.221C45.2311 121.751 45.5602 121.124 45.6542 120.325H42.0035V119.463H46.9233V120.278C46.8607 120.936 46.61 121.547 46.2182 122.095C45.8109 122.644 45.2938 123.082 44.6357 123.396C43.9777 123.709 43.2569 123.881 42.4422 123.881C41.5961 123.881 40.8127 123.709 40.1233 123.364C39.4182 123.02 38.8698 122.534 38.4624 121.907C38.0551 121.281 37.8514 120.575 37.8514 119.792C37.8514 119.009 38.0551 118.304 38.4624 117.677C38.8698 117.05 39.4182 116.564 40.1233 116.204C40.8284 115.859 41.5961 115.671 42.4422 115.671C43.4136 115.671 44.2754 115.891 45.0275 116.314C45.7795 116.737 46.3123 117.332 46.657 118.1H45.2311H45.2155Z" fill="white"/>
<path d="M53.128 123.819L50.9501 120.528H49.5086V123.819H48.3178V115.781H51.2634C51.9528 115.781 52.5326 115.891 53.0183 116.094C53.504 116.298 53.8487 116.58 54.0837 116.94C54.3188 117.301 54.4441 117.692 54.4441 118.147C54.4441 118.695 54.2561 119.197 53.8957 119.62C53.5353 120.043 52.9869 120.325 52.2662 120.466L54.5694 123.834H53.1436L53.128 123.819ZM49.5086 119.682H51.2634C51.9058 119.682 52.3915 119.541 52.7206 119.259C53.0496 118.977 53.2063 118.601 53.2063 118.131C53.2063 117.661 53.0496 117.285 52.7206 117.019C52.3915 116.752 51.9058 116.627 51.2634 116.627H49.5086V119.682Z" fill="white"/>
<path d="M61.5105 122.033H57.5151L56.7787 123.819H55.5252L58.8312 115.812H60.21L63.5004 123.819H62.2469L61.5105 122.033ZM61.1658 121.171L59.5206 117.113L57.8755 121.171H61.1815H61.1658Z" fill="white"/>
<path d="M70.3944 115.765V116.611H67.9032V123.803H66.7124V116.611H64.2054V115.765H70.3944Z" fill="white"/>
<path d="M72.87 116.627V119.322H76.2074V120.184H72.87V122.957H76.5991V123.819H71.6792V115.765H76.5991V116.627H72.87Z" fill="white"/>
<path d="M83.6498 116.267C84.3862 116.596 84.9346 117.066 85.3263 117.677C85.718 118.288 85.9061 118.993 85.9061 119.823C85.9061 120.654 85.718 121.359 85.3263 121.97C84.9346 122.565 84.3706 123.035 83.6498 123.349C82.9291 123.662 82.0517 123.834 81.0646 123.834H78.2129V115.797H81.0646C82.0673 115.797 82.9291 115.953 83.6498 116.282V116.267ZM83.7595 122.127C84.3862 121.578 84.6839 120.81 84.6839 119.808C84.6839 118.805 84.3706 118.022 83.7438 117.457C83.1171 116.893 82.224 116.611 81.0489 116.611H79.4037V122.941H81.0489C82.224 122.941 83.1328 122.659 83.7438 122.111L83.7595 122.127Z" fill="white"/>
<path d="M99.8978 115.828V123.819H98.707V117.865L95.6831 123.819H94.837L91.813 117.849V123.819H90.6222V115.828H91.907L95.26 122.424L98.613 115.828H99.8822H99.8978Z" fill="white"/>
<path d="M102.937 116.627V119.322H106.275V120.184H102.937V122.957H106.667V123.819H101.747V115.765H106.667V116.627H102.937Z" fill="white"/>
<path d="M113.717 116.267C114.454 116.596 115.002 117.066 115.394 117.677C115.785 118.288 115.973 118.993 115.973 119.823C115.973 120.654 115.785 121.359 115.394 121.97C115.002 122.565 114.438 123.035 113.717 123.349C112.981 123.662 112.119 123.834 111.132 123.834H108.28V115.797H111.132C112.135 115.797 112.997 115.953 113.717 116.282V116.267ZM113.827 122.127C114.454 121.578 114.751 120.81 114.751 119.808C114.751 118.805 114.438 118.022 113.811 117.457C113.185 116.893 112.291 116.611 111.116 116.611H109.471V122.941H111.116C112.291 122.941 113.2 122.659 113.811 122.111L113.827 122.127Z" fill="white"/>
<path d="M118.574 115.765V123.803H117.384V115.765H118.574Z" fill="white"/>
<path d="M125.813 122.033H121.833L121.097 123.819H119.844L123.15 115.812H124.528L127.819 123.819H126.565L125.829 122.033H125.813ZM125.484 121.171L123.823 117.113L122.178 121.171H125.484Z" fill="white"/>
<path d="M133.679 123.615C133.209 123.427 132.833 123.161 132.551 122.832C132.284 122.503 132.143 122.111 132.128 121.672H133.397C133.444 122.048 133.616 122.362 133.929 122.628C134.243 122.894 134.697 123.02 135.293 123.02C135.888 123.02 136.311 122.894 136.64 122.644C136.969 122.393 137.126 122.064 137.126 121.672C137.126 121.359 137.032 121.108 136.844 120.92C136.656 120.732 136.405 120.575 136.123 120.481C135.841 120.387 135.449 120.278 134.963 120.152C134.352 120.011 133.882 119.87 133.506 119.745C133.146 119.604 132.833 119.385 132.582 119.087C132.316 118.789 132.19 118.398 132.19 117.896C132.19 117.457 132.316 117.066 132.566 116.737C132.817 116.408 133.177 116.141 133.632 115.953C134.086 115.765 134.619 115.671 135.214 115.671C136.076 115.671 136.781 115.859 137.314 116.235C137.862 116.611 138.175 117.113 138.238 117.739H136.922C136.875 117.426 136.687 117.16 136.374 116.925C136.045 116.69 135.622 116.58 135.089 116.58C134.587 116.58 134.18 116.69 133.867 116.925C133.553 117.144 133.397 117.473 133.397 117.88C133.397 118.178 133.491 118.413 133.679 118.601C133.867 118.789 134.102 118.93 134.368 119.024C134.634 119.118 135.026 119.228 135.528 119.353C136.139 119.494 136.609 119.651 136.985 119.792C137.345 119.933 137.658 120.152 137.925 120.45C138.191 120.748 138.317 121.155 138.317 121.657C138.317 122.048 138.191 122.424 137.956 122.769C137.721 123.114 137.376 123.396 136.906 123.615C136.436 123.834 135.904 123.944 135.261 123.944C134.619 123.944 134.117 123.85 133.647 123.662L133.679 123.615Z" fill="white"/>
<path d="M140.071 117.677C140.479 117.05 141.027 116.564 141.717 116.204C142.406 115.844 143.189 115.671 144.035 115.671C145.038 115.671 145.9 115.875 146.652 116.314C147.388 116.737 147.937 117.332 148.282 118.116H146.856C146.605 117.63 146.245 117.254 145.759 117.003C145.289 116.737 144.709 116.611 144.051 116.611C143.393 116.611 142.845 116.737 142.328 117.003C141.826 117.269 141.419 117.63 141.137 118.116C140.855 118.601 140.698 119.165 140.698 119.808C140.698 120.45 140.839 120.998 141.137 121.484C141.419 121.97 141.826 122.33 142.328 122.597C142.829 122.863 143.409 122.988 144.051 122.988C144.694 122.988 145.289 122.863 145.759 122.597C146.229 122.33 146.605 121.97 146.856 121.484H148.282C147.937 122.252 147.404 122.847 146.652 123.27C145.9 123.693 145.038 123.897 144.035 123.897C143.189 123.897 142.422 123.725 141.717 123.38C141.027 123.035 140.479 122.55 140.071 121.923C139.664 121.296 139.476 120.591 139.476 119.808C139.476 119.024 139.68 118.319 140.071 117.692V117.677Z" fill="white"/>
<path d="M156.899 115.765V123.803H155.708V120.152H151.055V123.803H149.864V115.765H151.055V119.291H155.708V115.765H156.899Z" fill="white"/>
<path d="M160.565 123.38C159.86 123.035 159.312 122.534 158.905 121.907C158.497 121.281 158.294 120.575 158.294 119.792C158.294 119.009 158.497 118.304 158.905 117.677C159.312 117.05 159.86 116.564 160.565 116.204C161.271 115.859 162.038 115.671 162.884 115.671C163.73 115.671 164.514 115.844 165.219 116.204C165.924 116.549 166.472 117.034 166.864 117.661C167.272 118.288 167.46 118.993 167.46 119.792C167.46 120.591 167.256 121.296 166.864 121.923C166.457 122.55 165.908 123.035 165.219 123.38C164.514 123.725 163.746 123.897 162.884 123.897C162.023 123.897 161.255 123.725 160.565 123.38ZM164.608 122.597C165.125 122.33 165.517 121.954 165.814 121.484C166.112 120.998 166.253 120.434 166.253 119.792C166.253 119.15 166.112 118.586 165.814 118.1C165.517 117.614 165.125 117.254 164.608 116.987C164.107 116.721 163.527 116.596 162.869 116.596C162.211 116.596 161.647 116.721 161.13 116.987C160.612 117.254 160.221 117.614 159.923 118.1C159.625 118.586 159.484 119.15 159.484 119.792C159.484 120.434 159.625 120.998 159.923 121.484C160.221 121.97 160.612 122.346 161.13 122.597C161.647 122.847 162.211 122.988 162.853 122.988C163.495 122.988 164.06 122.863 164.577 122.597H164.608Z" fill="white"/>
<path d="M170.703 123.38C169.998 123.035 169.449 122.534 169.042 121.907C168.635 121.281 168.431 120.575 168.431 119.792C168.431 119.009 168.635 118.304 169.042 117.677C169.449 117.05 169.998 116.564 170.703 116.204C171.408 115.859 172.176 115.671 173.022 115.671C173.868 115.671 174.651 115.844 175.356 116.204C176.061 116.549 176.61 117.034 177.001 117.661C177.409 118.288 177.613 118.993 177.613 119.792C177.613 120.591 177.409 121.296 177.001 121.923C176.594 122.55 176.046 123.035 175.356 123.38C174.651 123.725 173.884 123.897 173.022 123.897C172.16 123.897 171.392 123.725 170.703 123.38ZM174.745 122.597C175.262 122.33 175.654 121.954 175.952 121.484C176.249 120.998 176.39 120.434 176.39 119.792C176.39 119.15 176.249 118.586 175.952 118.1C175.654 117.614 175.262 117.254 174.745 116.987C174.228 116.721 173.664 116.596 173.006 116.596C172.348 116.596 171.784 116.721 171.267 116.987C170.766 117.254 170.358 117.614 170.06 118.1C169.763 118.586 169.622 119.15 169.622 119.792C169.622 120.434 169.763 120.998 170.06 121.484C170.358 121.97 170.75 122.346 171.267 122.597C171.784 122.863 172.348 122.988 172.99 122.988C173.633 122.988 174.197 122.863 174.714 122.597H174.745Z" fill="white"/>
<path d="M180.198 122.957H183.394V123.803H179.007V115.765H180.198V122.957Z" fill="white"/>
<defs>
<linearGradient id="paint0_linear_3_112" x1="7.31392" y1="119.776" x2="187.907" y2="119.776" gradientUnits="userSpaceOnUse">
<stop stop-color="#F37321"/>
<stop offset="0.26" stop-color="#F27022"/>
<stop offset="0.4" stop-color="#F26827"/>
<stop offset="0.51" stop-color="#F15B2F"/>
<stop offset="0.58" stop-color="#F04E37"/>
</linearGradient>
<linearGradient id="paint1_linear_3_112" x1="17.0595" y1="77.1273" x2="41.5021" y2="96.6813" gradientUnits="userSpaceOnUse">
<stop stop-color="#F37321"/>
<stop offset="0.26" stop-color="#F27022"/>
<stop offset="0.4" stop-color="#F26827"/>
<stop offset="0.51" stop-color="#F15B2F"/>
<stop offset="0.58" stop-color="#F04E37"/>
</linearGradient>
<linearGradient id="paint2_linear_3_112" x1="17.0439" y1="77.1586" x2="41.4864" y2="96.7126" gradientUnits="userSpaceOnUse">
<stop stop-color="#F37321"/>
<stop offset="0.26" stop-color="#F27022"/>
<stop offset="0.4" stop-color="#F26827"/>
<stop offset="0.51" stop-color="#F15B2F"/>
<stop offset="0.58" stop-color="#F04E37"/>
</linearGradient>
</defs>
</svg>
